<?xml version="1.0" standalone="no"?>
<!DOCTYPE svg PUBLIC "-//W3C//DTD SVG 20010904//EN"
 "http://www.w3.org/TR/2001/REC-SVG-20010904/DTD/svg10.dtd">
<svg version="1.0" 
  xmlns="http://www.w3.org/2000/svg" width="1280.000000pt" height="720.000000pt" viewBox="0 0 1280.000000 720.000000" preserveAspectRatio="xMidYMid meet">
  <defs>
    <style>.a{fill:red;}</style>
  </defs>
  <g transform="translate(0.000000,720.000000) scale(0.100000,-0.100000)" fill="#000000" stroke="none">
    <path class="a" d="M697 6479 c-226 -13 -272 -28 -363 -116 -62 -60 -69 -99 -69 -358 1
-368 46 -566 153 -673 54 -54 193 -128 266 -141 74 -14 458 -14 756 -1 297 13
973 48 1080 56 52 4 81 3 75 -3 -5 -5 -53 -29 -105 -53 -359 -163 -822 -396
-1029 -517 l-94 -55 -281 17 c-380 23 -821 32 -830 16 -16 -25 118 -49 499
-86 l260 -26 63 -62 c34 -34 64 -69 67 -78 3 -9 -1 -45 -9 -80 -30 -128 -38
-330 -33 -773 5 -424 7 -449 42 -613 7 -30 2 -38 -56 -98 -34 -36 -72 -68 -83
-70 -12 -3 -129 -14 -261 -25 -251 -22 -429 -44 -471 -60 -57 -22 -8 -30 179
-30 179 0 749 23 845 35 39 4 53 -1 135 -49 222 -130 619 -331 1030 -521 81
-38 145 -70 143 -72 -2 -3 -89 0 -193 6 -780 45 -1163 61 -1438 61 -287 0
-345 -10 -449 -72 -39 -24 -87 -57 -107 -75 -104 -93 -159 -339 -159 -706 0
-175 17 -270 56 -308 14 -13 37 -36 52 -50 64 -63 127 -76 432 -90 653 -31
2503 43 4030 161 1399 109 1918 200 1996 352 24 45 21 157 -6 252 -12 43 -18
82 -13 86 4 3 114 26 243 48 2314 412 3923 722 4445 857 503 130 770 256 951
447 92 99 148 192 190 318 87 259 58 576 -74 798 -86 144 -240 281 -417 370
-303 151 -628 239 -1626 441 -737 149 -2381 454 -3571 662 -70 12 -133 26
-139 29 -8 5 -4 30 11 86 29 101 30 210 3 256 -89 154 -636 247 -2103 358
-1575 119 -3378 186 -4023 149z"/>
  </g>
</svg>
